<svg width="30" height="30" viewBox="0 0 512 512" fill="none" xmlns="http://www.w3.org/2000/svg">
<path d="M224.001 400L149.973 334.197L174.987 412.814L224.001 426.182V400Z" fill="#FFE6EE"></path>
<path d="M120 240L64 216L38.9013 251.138C29.2098 264.706 24 280.963 24 297.637V496H176V416L120 240Z" fill="#31C292"></path>
<path d="M72 456V472C72 476.243 73.6857 480.313 76.6863 483.314C79.6869 486.314 83.7565 488 88 488H224V456H72Z" fill="#BEBEBE"></path>
<path d="M180.358 137.433L160 56H64V216L120 240L128 200L145.433 195.642C151.548 194.113 157.303 191.394 162.367 187.642C167.432 183.889 171.708 179.176 174.951 173.771C178.194 168.365 180.341 162.374 181.269 156.14C182.196 149.905 181.887 143.548 180.358 137.433V137.433Z" fill="#FFE6EE"></path>
<path d="M78.295 35.6562C63.5089 36.8392 49.711 43.5482 39.6491 54.4472C29.5873 65.3461 24 79.6352 24 94.4685V95.658C24 106.351 26.9062 116.844 32.4079 126.013L72 192L84.3603 167.279C90.379 155.242 93.2637 141.88 92.7472 128.432C92.2307 114.984 88.3298 101.883 81.4056 90.3425L80 88L165.696 82.644C178.07 81.8706 189.901 77.2826 199.562 69.5109C209.223 61.7393 216.238 51.1657 219.645 39.2441L224 24L78.295 35.6562Z" fill="#F4C36E"></path>
<path d="M272 24H448C452.243 24 456.313 25.6857 459.314 28.6863C462.314 31.6869 464 35.7565 464 40V168C464 172.243 462.314 176.313 459.314 179.314C456.313 182.314 452.243 184 448 184H288L256 216V40C256 35.7565 257.686 31.6869 260.686 28.6863C263.687 25.6857 267.757 24 272 24Z" fill="#689CDA"></path>
<path d="M408 48H288V64H408V48Z" fill="#ABCDEF"></path>
<path d="M368 80H296V96H368V80Z" fill="#ABCDEF"></path>
<path d="M424 112H304V128H424V112Z" fill="#ABCDEF"></path>
<path d="M400 144H288V160H400V144Z" fill="#ABCDEF"></path>
<path d="M140.422 104.846L124.422 112.846L131.577 127.156L147.577 119.156L140.422 104.846Z" fill="#EAB0C3"></path>
<path d="M145.941 175.761L178.013 167.743C180.349 162.219 181.625 156.306 181.775 150.311L142.061 160.239L145.941 175.761Z" fill="#EAB0C3"></path>
<path d="M224.001 426.182L137.889 402.696C134.937 401.892 132.279 400.257 130.227 397.988C128.176 395.718 126.819 392.908 126.316 389.891L118.645 343.863C117.838 339.02 115.968 334.415 113.17 330.38C110.373 326.345 106.716 322.98 102.463 320.525C98.2108 318.071 93.4675 316.589 88.574 316.185C83.6806 315.781 78.7584 316.466 74.1609 318.19H74.1609C66.8336 320.938 60.7099 326.181 56.8668 332.998C53.0238 339.815 51.7076 347.769 53.1498 355.46L67.1067 429.897C68.4822 437.233 72.3788 443.858 78.1223 448.624C83.8658 453.391 91.0948 456 98.5586 456H224.001V426.182Z" fill="#FCD6E0"></path>
<path d="M74.1609 318.19H74.1609C66.8336 320.938 60.7099 326.181 56.8669 332.998C53.0238 339.815 51.7076 347.769 53.1498 355.46L58.7473 385.313L122.881 369.28L118.645 343.863C117.838 339.02 115.968 334.415 113.17 330.38C110.373 326.345 106.716 322.98 102.463 320.525C98.2108 318.071 93.4675 316.589 88.574 316.185C83.6806 315.781 78.7584 316.466 74.1609 318.19V318.19Z" fill="#00B378"></path>
<path d="M434.446 488H208L245.772 261.37C246.394 257.634 248.322 254.24 251.212 251.792C254.102 249.344 257.767 248 261.554 248H469.113C471.436 248 473.732 248.506 475.84 249.483C477.949 250.46 479.819 251.885 481.321 253.658C482.823 255.431 483.921 257.51 484.538 259.75C485.155 261.99 485.277 264.338 484.895 266.63L450.228 474.63C449.606 478.366 447.678 481.76 444.788 484.208C441.898 486.656 438.233 488 434.446 488V488Z" fill="#DFDFDF"></path>
<path d="M314.343 413.658L274.343 373.658C273.6 372.915 273.011 372.033 272.609 371.063C272.207 370.092 272 369.052 272 368.001C272 366.95 272.207 365.91 272.609 364.939C273.011 363.969 273.6 363.087 274.343 362.344L314.343 322.344L325.657 333.658L291.314 368.001L325.657 402.344L314.343 413.658Z" fill="#F4F4F4"></path>
<path d="M352.19 334.265L336.191 406.266L351.811 409.736L367.81 337.736L352.19 334.265Z" fill="#F4F4F4"></path>
<path d="M389.657 413.658L378.344 402.344L412.687 368.001L378.344 333.658L389.657 322.344L429.657 362.344C430.4 363.087 430.989 363.969 431.392 364.939C431.794 365.91 432.001 366.95 432.001 368.001C432.001 369.052 431.794 370.092 431.392 371.063C430.989 372.033 430.4 372.915 429.657 373.658L389.657 413.658Z" fill="#F4F4F4"></path>
<path d="M487.425 248.487C485.174 245.826 482.369 243.687 479.207 242.221C476.044 240.755 472.599 239.997 469.113 240H261.554C255.869 239.985 250.364 241.994 246.026 245.669C241.688 249.344 238.801 254.443 237.881 260.054L217.329 383.366L157.315 330.021L157.111 330.25L128.25 239.543L134.852 206.533L147.374 203.402C161.773 199.785 174.15 190.604 181.788 177.873C189.427 165.142 191.704 149.901 188.12 135.493L176.54 89.1758C188.52 86.5285 199.562 80.6964 208.503 72.295C217.444 63.8936 223.951 53.2344 227.337 41.4424L231.692 26.1983C232.047 24.9557 232.096 23.6457 231.834 22.3802C231.573 21.1147 231.008 19.9315 230.19 18.9317C229.371 17.9319 228.322 17.1453 227.133 16.6392C225.944 16.133 224.65 15.9225 223.362 16.0254L77.6569 27.6817C60.8659 29.0251 45.1971 36.6439 33.771 49.0208C22.3449 61.3976 16.0001 77.6242 16.0001 94.4688V95.6583C16.0008 107.802 19.301 119.717 25.548 130.13L63.2472 192.961L56.7912 212.328L32.3917 246.488C21.7013 261.398 15.9673 279.291 16.0001 297.637V496H32.0001V297.637C31.9733 282.626 36.6647 267.987 45.4113 255.788L66.7673 225.89L113.486 245.912L162.904 401.227L139.993 394.979C138.518 394.573 137.19 393.756 136.165 392.621C135.14 391.487 134.46 390.083 134.206 388.575L119.891 302.685L104.109 305.315L113.775 363.311L65.0445 375.493L55.8629 326.525L40.1374 329.475L59.2434 431.371C60.4767 437.962 63.3531 444.135 67.6062 449.318C66.498 450.046 65.5882 451.037 64.9587 452.204C64.3292 453.37 63.9998 454.675 64.0001 456V472C64.0073 478.363 66.5382 484.463 71.0375 488.963C75.5368 493.462 81.6371 495.993 88.0001 496H434.446C440.131 496.015 445.636 494.006 449.974 490.331C454.312 486.656 457.2 481.557 458.119 475.946L492.786 267.946C493.362 264.508 493.181 260.986 492.255 257.625C491.329 254.264 489.681 251.146 487.425 248.487V248.487ZM39.2677 121.898C34.5129 113.972 32.0009 104.902 32.0001 95.6583V94.4688C32.0615 81.6646 36.9121 69.3469 45.5976 59.9388C54.2831 50.5307 66.1748 44.7132 78.9333 43.6309L213.139 32.8946L211.952 37.046C208.989 47.3714 202.905 56.5281 194.535 63.2616C186.165 69.9951 175.918 73.9761 165.197 74.6592L79.5011 80.0157C78.1304 80.1013 76.8048 80.5385 75.652 81.2849C74.4992 82.0314 73.5579 83.0621 72.9189 84.2777C72.2798 85.4934 71.9645 86.8531 72.0033 88.226C72.0421 89.5989 72.4337 90.9386 73.1403 92.1163L74.546 94.4591C80.8076 104.834 84.3359 116.628 84.8009 128.737C85.266 140.847 82.6526 152.876 77.2052 163.701L71.362 175.388L39.2677 121.898ZM79.4098 195.069L91.5158 170.857C97.4039 159.16 100.592 146.291 100.846 133.198C101.1 120.104 98.4129 107.121 92.9826 95.2042L160.5 90.9844L172.597 139.374C173.657 143.61 174.012 147.991 173.649 152.342L142.06 160.239L145.941 175.761L167.638 170.336C162.166 179.091 153.51 185.381 143.493 187.881L126.06 192.239C124.59 192.606 123.255 193.383 122.21 194.479C121.165 195.575 120.452 196.946 120.155 198.431L114.089 228.763L73.9171 211.547L79.4098 195.069ZM166.427 359.528L214.221 402.012L212.115 414.649L181.291 406.242L166.427 359.528ZM116.413 379.143L118.424 391.206C119.186 395.729 121.225 399.94 124.301 403.343C127.376 406.746 131.36 409.199 135.783 410.414L209.471 430.511L206.556 448H98.5578C92.9605 447.998 87.54 446.04 83.2329 442.465C78.9258 438.891 76.0027 433.924 74.9689 428.423L67.9982 391.246L116.413 379.143ZM80.0001 472V464H203.89L201.223 480H88.0001C85.8792 479.998 83.8457 479.154 82.346 477.654C80.8462 476.154 80.0026 474.121 80.0001 472V472ZM477.004 265.315L442.337 473.315C442.03 475.186 441.068 476.885 439.622 478.11C438.176 479.335 436.341 480.005 434.446 480H217.444L253.663 262.685C253.97 260.815 254.932 259.115 256.378 257.89C257.824 256.665 259.659 255.995 261.554 256H469.113C470.275 256 471.423 256.253 472.477 256.742C473.531 257.23 474.466 257.943 475.217 258.829C475.968 259.716 476.517 260.755 476.826 261.875C477.134 262.996 477.195 264.169 477.004 265.315V265.315Z" fill="#2C2C51"></path>
<path d="M314.343 322.344L274.343 362.344C273.6 363.087 273.011 363.969 272.609 364.939C272.207 365.91 272 366.95 272 368.001C272 369.052 272.207 370.092 272.609 371.063C273.011 372.033 273.6 372.915 274.343 373.658L314.343 413.658L325.657 402.344L291.314 368.001L325.657 333.658L314.343 322.344Z" fill="#2C2C51"></path>
<path d="M352.19 334.265L336.191 406.266L351.811 409.736L367.81 337.736L352.19 334.265Z" fill="#2C2C51"></path>
<path d="M389.657 322.344L378.344 333.658L412.687 368.001L378.344 402.344L389.657 413.658L429.657 373.658C430.4 372.915 430.989 372.033 431.392 371.063C431.794 370.092 432.001 369.052 432.001 368.001C432.001 366.95 431.794 365.91 431.392 364.939C430.989 363.969 430.4 363.087 429.657 362.344L389.657 322.344Z" fill="#2C2C51"></path>
<path d="M252.938 223.391C254.4 223.996 256.009 224.155 257.561 223.846C259.112 223.538 260.538 222.776 261.657 221.657L291.314 192H448C454.363 191.993 460.463 189.462 464.963 184.963C469.462 180.463 471.993 174.363 472 168V40C471.993 33.637 469.462 27.5368 464.963 23.0375C460.463 18.5382 454.363 16.0073 448 16H272C265.637 16.0073 259.537 18.5382 255.037 23.0375C250.538 27.5368 248.007 33.637 248 40V216C248 217.582 248.469 219.129 249.348 220.444C250.227 221.76 251.477 222.785 252.938 223.391ZM264 40C264.002 37.879 264.846 35.8456 266.346 34.3458C267.846 32.8461 269.879 32.0024 272 32H448C450.121 32.0024 452.154 32.8461 453.654 34.3458C455.154 35.8456 455.998 37.879 456 40V168C455.998 170.121 455.154 172.154 453.654 173.654C452.154 175.154 450.121 175.998 448 176H288C285.878 176 283.844 176.843 282.343 178.343L264 196.687V40Z" fill="#2C2C51"></path>
<path d="M408 48H288V64H408V48Z" fill="#2C2C51"></path>
<path d="M368 80H296V96H368V80Z" fill="#2C2C51"></path>
<path d="M424 112H304V128H424V112Z" fill="#2C2C51"></path>
<path d="M400 144H288V160H400V144Z" fill="#2C2C51"></path>
<path d="M140.422 104.846L124.422 112.846L131.577 127.156L147.577 119.156L140.422 104.846Z" fill="#2C2C51"></path>
</svg>